{
  "accessors": [
    {
      "bufferView": 2,
      "componentType": 5126,
      "count": 906,
      "max": [
        4.9079999923706055,
        4.9079999923706055,
        0.02590000070631504
      ],
      "min": [
        -4.9079999923706055,
        -4.9079999923706055,
        -0.02590000070631504
      ],
      "type": "VEC3"
    },
    {
      "bufferView": 2,
      "byteOffset": 10872,
      "componentType": 5126,
      "count": 906,
      "type": "VEC3"
    },
    {
      "bufferView": 3,
      "componentType": 5126,
      "count": 906,
      "type": "VEC4"
    },
    {
      "bufferView": 1,
      "componentType": 5126,
      "count": 906,
      "type": "VEC2"
    },
    {
      "bufferView": 1,
      "byteOffset": 7248,
      "componentType": 5126,
      "count": 906,
      "type": "VEC2"
    },
    {
      "bufferView": 1,
      "byteOffset": 14496,
      "componentType": 5126,
      "count": 906,
      "type": "VEC2"
    },
    {
      "bufferView": 0,
      "componentType": 5125,
      "count": 3840,
      "type": "SCALAR"
    }
  ],
  "asset": {
    "generator": "fab-model-conversion",
    "version": "2.0"
  },
  "bufferViews": [
    {
      "buffer": 0,
      "byteLength": 15360,
      "target": 34963
    },
    {
      "buffer": 0,
      "byteLength": 21744,
      "byteOffset": 15360,
      "byteStride": 8,
      "target": 34962
    },
    {
      "buffer": 0,
      "byteLength": 21744,
      "byteOffset": 37104,
      "byteStride": 12,
      "target": 34962
    },
    {
      "buffer": 0,
      "byteLength": 14496,
      "byteOffset": 58848,
      "byteStride": 16,
      "target": 34962
    }
  ],
  "buffers": [
    {
      "byteLength": 73344,
      "uri": "scene.bin"
    }
  ],
  "images": [
    {
      "uri": "textures/VinylRecord3_baseColor.png"
    },
    {
      "uri": "textures/VinylRecord3_metallicRoughness.png"
    },
    {
      "uri": "textures/VinylRecord3_normal.png"
    }
  ],
  "materials": [
    {
      "name": "VinylRecord3",
      "normalTexture": {
        "index": 2
      },
      "occlusionTexture": {
        "index": 1
      },
      "pbrMetallicRoughness": {
        "baseColorTexture": {
          "index": 0
        },
        "metallicRoughnessTexture": {
          "index": 1
        }
      }
    }
  ],
  "meshes": [
    {
      "name": "VinylRecord3_VinylRecord3_0",
      "primitives": [
        {
          "attributes": {
            "NORMAL": 1,
            "POSITION": 0,
            "TANGENT": 2,
            "TEXCOORD_0": 3,
            "TEXCOORD_1": 4,
            "TEXCOORD_2": 5
          },
          "indices": 6,
          "material": 0,
          "mode": 4
        }
      ]
    }
  ],
  "nodes": [
    {
      "children": [
        1
      ],
      "matrix": [
        1.0,
        0.0,
        0.0,
        0.0,
        0.0,
        2.220446049250313e-16,
        -1.0,
        0.0,
        0.0,
        1.0,
        2.220446049250313e-16,
        0.0,
        0.0,
        0.0,
        0.0,
        1.0
      ],
      "name": "Sketchfab_model"
    },
    {
      "children": [
        2
      ],
      "matrix": [
        0.02539999969303608,
        0.0,
        0.0,
        0.0,
        0.0,
        0.0,
        0.02539999969303608,
        0.0,
        0.0,
        -0.02539999969303608,
        0.0,
        0.0,
        0.0,
        0.0,
        0.0,
        1.0
      ],
      "name": "db8fb8aaf43d4c108172390a6b6506c3.fbx"
    },
    {
      "children": [
        3
      ],
      "name": "RootNode"
    },
    {
      "children": [
        4
      ],
      "matrix": [
        0.5510451081701093,
        0.7608924944072624,
        -0.34262501472672224,
        0.0,
        -0.8284425200991328,
        0.5481044996025003,
        -0.11517138710326692,
        0.0,
        0.1001612682307402,
        0.3473097601136296,
        0.9323859988632512,
        0.0,
        0.0,
        0.0,
        0.0,
        1.0
      ],
      "name": "VinylRecord3"
    },
    {
      "mesh": 0,
      "name": "VinylRecord3_VinylRecord3_0"
    }
  ],
  "samplers": [
    {
      "magFilter": 9729,
      "minFilter": 9987,
      "wrapS": 10497,
      "wrapT": 10497
    }
  ],
  "scene": 0,
  "scenes": [
    {
      "name": "Sketchfab_Scene",
      "nodes": [
        0
      ]
    }
  ],
  "textures": [
    {
      "sampler": 0,
      "source": 0
    },
    {
      "sampler": 0,
      "source": 1
    },
    {
      "sampler": 0,
      "source": 2
    }
  ]
}
